<svg width="412" height="403" viewBox="0 0 412 403" fill="none" xmlns="http://www.w3.org/2000/svg">
<path d="M310.297 402.5L7.20001 402.5C3.49973 402.5 0.50003 399.5 0.50003 395.8L0.500005 105.974C0.500004 102.273 3.4997 99.2736 7.20002 99.2736L286.34 99.2735C289.92 99.2735 293.353 97.8517 295.885 95.3207L314.042 77.1679C316.575 74.6361 317.997 71.2018 317.997 67.6208L317.997 7.19996C317.997 3.49967 320.997 0.499977 324.697 0.499977L404.8 0.49997C408.5 0.49997 411.5 3.49963 411.5 7.19995L411.5 91.5735C411.5 95.2738 408.5 98.2735 404.8 98.2735L343.535 98.2735C340.47 98.2735 337.496 99.3164 335.102 101.231L322.065 111.658C318.862 114.22 316.997 118.099 316.997 122.201L316.997 395.8C316.997 399.5 313.998 402.5 310.297 402.5Z" fill="white" stroke="#453953"/>
</svg>
