<svg width="111" height="111" viewBox="0 0 111 111" fill="none" xmlns="http://www.w3.org/2000/svg">
<path d="M24.2814 18.0722C23.7267 18.0652 23.1879 17.8855 22.74 17.5583C22.292 17.2311 21.957 16.7724 21.7816 16.2461C21.6062 15.7198 21.599 15.152 21.761 14.6214C21.923 14.0908 22.2463 13.6239 22.6858 13.2854C32.2568 6.51417 43.7831 3.06604 55.5002 3.4688C64.7271 3.4688 77.9777 5.02974 88.4533 12.5569C89.0262 12.9679 89.4133 13.5888 89.5303 14.2841C89.6473 14.9793 89.4846 15.6927 89.0777 16.2685C88.6552 16.8382 88.0258 17.2192 87.3252 17.3295C86.6245 17.4398 85.9085 17.2706 85.3314 16.8582C76.4358 11.2048 66.033 8.38639 55.5002 8.77599C44.9846 8.41874 34.6375 11.4864 26.0158 17.5172C25.5249 17.908 24.908 18.1054 24.2814 18.0722Z" fill="#170728"/>
<path d="M97.9227 42.5269C97.4938 42.523 97.0719 42.4171 96.692 42.2181C96.312 42.0191 95.9848 41.7326 95.7374 41.3822C89.7364 32.9184 79.018 21.645 55.4999 21.645C47.6804 21.4481 39.929 23.143 32.9052 26.5854C25.8815 30.0278 19.7932 35.1159 15.1583 41.4169C14.7421 41.9843 14.1188 42.3645 13.4238 42.4749C12.7288 42.5853 12.0183 42.417 11.4468 42.0066C11.1469 41.7979 10.8937 41.5292 10.7032 41.2174C10.5127 40.9057 10.3891 40.5578 10.3402 40.1958C10.2912 39.8338 10.3181 39.4655 10.419 39.1144C10.5199 38.7633 10.6927 38.437 10.9264 38.1563C16.0649 31.2147 22.796 25.6095 30.553 21.8125C38.31 18.0155 46.8658 16.1379 55.4999 16.3378C74.9596 16.3378 89.5283 23.5528 100.039 38.3297C100.442 38.9097 100.599 39.626 100.476 40.3216C100.352 41.0172 99.958 41.6355 99.3796 42.0413C98.9502 42.3387 98.4447 42.5072 97.9227 42.5269Z" fill="#170728"/>
<path d="M42.5962 107.531C42.0581 107.528 41.533 107.365 41.0881 107.062C40.6433 106.76 40.2988 106.331 40.0987 105.832C39.96 105.505 39.8896 105.153 39.892 104.798C39.8943 104.443 39.9693 104.092 40.1122 103.767C40.2552 103.442 40.4632 103.15 40.7233 102.909C40.9835 102.667 41.2903 102.481 41.625 102.363C56.7834 96.5353 65.9062 84.6028 65.9062 70.4156C66.0098 69.0225 65.8117 67.6235 65.3254 66.3139C64.8391 65.0044 64.076 63.8151 63.0882 62.8273C62.1005 61.8395 60.9112 61.0765 59.6017 60.5901C58.2921 60.1038 56.893 59.9057 55.5 60.0094C49.0481 60.0094 45.9262 63.4781 45.0937 71.6297C44.7066 75.4422 42.8569 78.9564 39.9332 81.4338C37.0095 83.9112 33.2393 85.159 29.415 84.915C27.3583 84.9449 25.318 84.5461 23.4239 83.744C21.5299 82.9419 19.8237 81.7541 18.414 80.2563C17.0043 78.7585 15.922 76.9835 15.236 75.0444C14.5501 73.1052 14.2756 71.0445 14.43 68.9934C14.6216 58.2688 19.0476 48.0553 26.7419 40.582C34.4363 33.1086 44.7743 28.982 55.5 29.1028C66.4976 29.1026 77.0485 33.4547 84.8478 41.2085C92.647 48.9623 97.0608 59.4875 97.1249 70.485C96.8801 78.2286 95.247 85.8654 92.3034 93.0319C92.0208 93.671 91.5018 94.176 90.8553 94.4411C90.2087 94.7062 89.4846 94.7108 88.8346 94.454C88.5122 94.3213 88.2194 94.1258 87.973 93.8791C87.7267 93.6323 87.5317 93.3392 87.3995 93.0165C87.2672 92.6939 87.2002 92.3483 87.2025 91.9996C87.2047 91.651 87.2761 91.3062 87.4124 90.9853C90.0761 84.4644 91.5674 77.5245 91.8178 70.485C91.7719 60.8894 87.9231 51.7034 81.1151 44.941C74.3072 38.1786 65.0957 34.3915 55.5 34.41C50.8568 34.318 46.241 35.1429 41.9171 36.8373C37.5931 38.5317 33.6459 41.0624 30.3014 44.2845C26.9568 47.5066 24.2807 51.3568 22.4263 55.6146C20.5719 59.8723 19.5755 64.4541 19.4943 69.0975C19.3521 70.447 19.4974 71.8114 19.9207 73.1007C20.3439 74.3901 21.0354 75.5752 21.9497 76.5779C22.864 77.5807 23.9803 78.3784 25.2252 78.9186C26.4701 79.4588 27.8152 79.7291 29.1721 79.7119C30.4213 79.8361 31.6827 79.7116 32.8835 79.3456C34.0843 78.9796 35.2007 78.3794 36.1683 77.5796C37.1358 76.7797 37.9353 75.7961 38.5206 74.6856C39.1059 73.5751 39.4654 72.3596 39.5784 71.1094C40.8271 60.3216 46.1343 54.8409 55.3959 54.8409C57.4948 54.7348 59.5924 55.0724 61.552 55.8317C63.5116 56.591 65.2891 57.7548 66.7686 59.2474C68.248 60.7399 69.3962 62.5276 70.1381 64.4938C70.8801 66.46 71.1992 68.5606 71.0746 70.6584C71.0746 87.1003 60.6684 100.906 43.3246 107.531C43.0826 107.559 42.8382 107.559 42.5962 107.531Z" fill="#170728"/>
<path d="M68.5773 105.034C67.9129 105.023 67.2739 104.777 66.7735 104.34C66.526 104.095 66.3296 103.803 66.1955 103.482C66.0614 103.16 65.9923 102.815 65.9923 102.467C65.9923 102.119 66.0614 101.774 66.1955 101.452C66.3296 101.131 66.526 100.839 66.7735 100.594C74.5775 92.5043 78.9738 81.7249 79.0529 70.485C79.0529 65.0737 77.3879 47.4178 55.8123 47.4178C52.6685 47.3072 49.5341 47.8238 46.5921 48.9375C43.65 50.0512 40.9592 51.7397 38.6767 53.9044C36.6344 55.925 35.0199 58.3361 33.9293 60.9941C32.8387 63.652 32.2944 66.5022 32.3289 69.375C32.3197 70.0773 32.0343 70.7478 31.5344 71.2412C31.0345 71.7347 30.3603 72.0113 29.6579 72.0112C29.3088 72.0158 28.9623 71.951 28.6384 71.8206C28.3146 71.6902 28.0198 71.4967 27.7714 71.2515C27.5229 71.0062 27.3256 70.714 27.1909 70.3919C27.0563 70.0698 26.987 69.7241 26.987 69.375C26.9329 65.8214 27.5859 62.2924 28.9079 58.9934C30.2299 55.6944 32.1945 52.6911 34.6876 50.1581C37.4512 47.5056 40.714 45.4284 44.2867 44.047C47.8595 42.6655 51.671 42.0073 55.5001 42.1106C76.5901 42.1106 84.0826 57.3731 84.0826 70.485C84.0373 82.9965 79.1954 95.0141 70.5545 104.062C70.316 104.359 70.0154 104.6 69.6738 104.768C69.3321 104.936 68.9578 105.026 68.5773 105.034Z" fill="#170728"/>
<path d="M30.0396 96.2232C28.2315 96.2189 26.425 96.1147 24.6284 95.911C24.2822 95.8723 23.947 95.7657 23.6419 95.5975C23.3369 95.4292 23.068 95.2025 22.8506 94.9303C22.6332 94.6582 22.4715 94.3458 22.3748 94.0112C22.2781 93.6765 22.2482 93.3261 22.2869 92.9799C22.3257 92.6337 22.4322 92.2985 22.6004 91.9935C22.7687 91.6884 22.9954 91.4195 23.2676 91.2021C23.5397 90.9847 23.8521 90.823 24.1867 90.7263C24.5214 90.6296 24.8718 90.5998 25.218 90.6385C33.8552 91.6097 40.654 90.0835 45.4755 86.0597C47.698 84.0722 49.4953 81.6554 50.7591 78.9549C52.0229 76.2545 52.7271 73.3261 52.8293 70.3463C52.8465 69.995 52.9347 69.6509 53.0886 69.3347C53.2425 69.0185 53.459 68.7368 53.7248 68.5066C53.9907 68.2764 54.3004 68.1025 54.6354 67.9954C54.9704 67.8883 55.3236 67.8502 55.6737 67.8835C56.3729 67.9368 57.0241 68.2596 57.4901 68.7837C57.956 69.3079 58.2002 69.9925 58.1712 70.6932C58.025 74.4032 57.1255 78.0448 55.5273 81.3961C53.9291 84.7475 51.6658 87.7387 48.8749 90.1875C43.5206 94.3878 36.8379 96.5293 30.0396 96.2232Z" fill="#170728"/>
</svg>
