<svg width="104" height="102" viewBox="0 0 104 102" fill="none" xmlns="http://www.w3.org/2000/svg">
<rect x="0.5" y="0.5" width="103" height="100.111" rx="13.9444" fill="white" stroke="#170728"/>
<g clip-path="url(#clip0_1_3033)">
<path d="M37.0006 35C36.7155 35.0542 36.4587 35.2075 36.2756 35.4327C36.0925 35.6579 35.9949 35.9406 36 36.2308V39.9231C36 40.2495 36.1297 40.5626 36.3605 40.7934C36.5913 41.0242 36.9044 41.1539 37.2308 41.1539C37.5572 41.1539 37.8703 41.0242 38.1011 40.7934C38.3319 40.5626 38.4616 40.2495 38.4616 39.9231V37.4616H40.9231C41.2495 37.4616 41.5626 37.3319 41.7934 37.1011C42.0242 36.8703 42.1539 36.5572 42.1539 36.2308C42.1539 35.9044 42.0242 35.5913 41.7934 35.3605C41.5626 35.1297 41.2495 35 40.9231 35H37.2308C37.1923 34.9982 37.1536 34.9982 37.1151 35C37.0766 34.9982 37.038 34.9982 36.9994 35H37.0006ZM62.7311 35C62.4047 35.0459 62.1099 35.2195 61.9115 35.4828C61.7131 35.746 61.6274 36.0773 61.6733 36.4037C61.7191 36.7301 61.8928 37.025 62.156 37.2233C62.4193 37.4217 62.7505 37.5074 63.077 37.4616H65.5385V39.9231C65.5385 40.2495 65.6682 40.5626 65.899 40.7934C66.1298 41.0242 66.4428 41.1539 66.7693 41.1539C67.0957 41.1539 67.4087 41.0242 67.6395 40.7934C67.8704 40.5626 68 40.2495 68 39.9231V36.2308C68 35.9044 67.8704 35.5913 67.6395 35.3605C67.4087 35.1297 67.0957 35 66.7693 35H63.077C63.0384 34.9982 62.9998 34.9982 62.9613 35C62.9231 34.9982 62.8849 34.9982 62.8468 35C62.8083 34.9982 62.7696 34.9982 62.7311 35ZM52 36.2308C41.909 36.2308 40.7385 46.0868 40.9613 50.7699C40.2006 51.3126 39.6923 52.1926 39.6923 53.4616H37.2308C37.1923 53.4597 37.1536 53.4597 37.1151 53.4616C37.0766 53.4597 37.038 53.4597 36.9994 53.4616C36.673 53.4922 36.3721 53.6513 36.163 53.9038C35.9539 54.1564 35.8537 54.4816 35.8843 54.808C35.915 55.1344 36.0741 55.4353 36.3266 55.6444C36.5791 55.8535 36.9044 55.9538 37.2308 55.9231H66.7693C67.0957 55.9231 67.4087 55.7934 67.6395 55.5626C67.8704 55.3318 68 55.0187 68 54.6923C68 54.3659 67.8704 54.0529 67.6395 53.822C67.4087 53.5912 67.0957 53.4616 66.7693 53.4616H64.3077C64.3077 52.2529 63.845 51.3126 63.0388 50.7305C63.2517 46.0326 62.0628 36.2308 52 36.2308ZM48.3077 44.8462C48.3077 48.7354 59.3846 47.0948 59.3846 49.7692V52.6923L60.7693 52.5385C60.7877 52.5372 60.8185 52.5385 60.885 52.5385C61.7588 52.5385 61.8462 52.9619 61.8462 53.4616H58.0382C58.1046 53.272 58.1539 53.0591 58.1539 52.8462C58.1539 52.3565 57.9594 51.887 57.6131 51.5407C57.2669 51.1945 56.7974 51 56.3077 51C55.8181 51 55.3485 51.1945 55.0023 51.5407C54.6561 51.887 54.4616 52.3565 54.4616 52.8462C54.4616 53.0591 54.5108 53.272 54.5773 53.4616H49.4228C49.4893 53.272 49.5385 53.0591 49.5385 52.8462C49.5385 52.3565 49.344 51.887 48.9978 51.5407C48.6515 51.1945 48.182 51 47.6923 51C47.2027 51 46.7331 51.1945 46.3869 51.5407C46.0407 51.887 45.8462 52.3565 45.8462 52.8462C45.8462 53.0591 45.8954 53.272 45.9619 53.4616H42.1539C42.1539 53.1231 42.1576 52.5385 43.269 52.5385L44.6154 52.6923V49.7692C44.6154 46.4179 46.8603 48.3969 48.3077 44.8462ZM42.3077 57.1539C44.6954 62.8634 47.9619 65.7692 52 65.7692C56.0394 65.7692 59.3059 62.8646 61.6923 57.1539H58.9994C57.104 61.2339 54.7483 63.3077 52 63.3077C49.2517 63.3077 46.8973 61.2339 44.9994 57.1539H42.3077ZM37.1151 60.808C37.0631 60.8174 37.0117 60.8302 36.9613 60.8462C36.6834 60.9085 36.4357 61.0652 36.2604 61.2896C36.0852 61.514 35.9931 61.7923 36 62.0769V65.7692C36 66.0957 36.1297 66.4087 36.3605 66.6395C36.5913 66.8703 36.9044 67 37.2308 67H40.9231C41.2495 67 41.5626 66.8703 41.7934 66.6395C42.0242 66.4087 42.1539 66.0957 42.1539 65.7692C42.1539 65.4428 42.0242 65.1298 41.7934 64.899C41.5626 64.6681 41.2495 64.5385 40.9231 64.5385H38.4616V62.0769C38.4678 61.9019 38.4366 61.7276 38.37 61.5656C38.3035 61.4036 38.2031 61.2577 38.0757 61.1376C37.9482 61.0175 37.7966 60.9259 37.631 60.8691C37.4653 60.8123 37.2894 60.7914 37.1151 60.808ZM66.6536 60.808C66.6015 60.8174 66.5501 60.8302 66.4997 60.8462C66.2219 60.9085 65.9742 61.0652 65.7989 61.2896C65.6236 61.514 65.5316 61.7923 65.5385 62.0769V64.5385H63.077C62.7505 64.5385 62.4375 64.6681 62.2067 64.899C61.9759 65.1298 61.8462 65.4428 61.8462 65.7692C61.8462 66.0957 61.9759 66.4087 62.2067 66.6395C62.4375 66.8703 62.7505 67 63.077 67H66.7693C67.0957 67 67.4087 66.8703 67.6395 66.6395C67.8704 66.4087 68 66.0957 68 65.7692V62.0769C68.0062 61.9019 67.975 61.7276 67.9085 61.5656C67.8419 61.4036 67.7416 61.2577 67.6141 61.1376C67.4867 61.0175 67.3351 60.9259 67.1694 60.8691C67.0038 60.8123 66.8279 60.7914 66.6536 60.808Z" fill="black"/>
</g>
<defs>
<clipPath id="clip0_1_3033">
<rect width="32" height="32" fill="white" transform="translate(36 35)"/>
</clipPath>
</defs>
</svg>
