<svg width="307" height="311" viewBox="0 0 307 311" fill="none" xmlns="http://www.w3.org/2000/svg">
<path d="M100.665 310.5H297.415C302.352 310.5 306.353 306.498 306.353 301.562V104.811C306.353 99.875 302.352 95.8733 297.415 95.8733H123.165C118.513 95.8733 114.052 94.0253 110.762 90.7358L95.8642 75.838C92.5747 72.5485 90.7267 68.087 90.7267 63.4349V9.43784C90.7267 4.50162 86.7251 0.5 81.7888 0.5H9.43784C4.50161 0.5 0.5 4.50162 0.5 9.43787V85.9355C0.5 90.8717 4.5016 94.8733 9.43783 94.8733H64.5158C68.4988 94.8733 72.3632 96.2289 75.4733 98.717L85.1436 106.453C89.3045 109.782 91.7267 114.822 91.7267 120.15V301.562C91.7267 306.498 95.7283 310.5 100.665 310.5Z" stroke="#5D5169"/>
</svg>
