<svg width="52" height="52" viewBox="0 0 52 52" fill="none" xmlns="http://www.w3.org/2000/svg">
<g clip-path="url(#clip0_1_3031)">
<path d="M52.2088 26.1044L46.988 28.7149L44.3775 31.3253L41.7671 28.7149L39.1566 36.5462L36.5462 28.7149L33.9357 49.5984L31.3253 28.7149L28.7149 33.9357L26.1044 28.7149L23.494 39.1566L20.8835 28.7149L18.2731 52.2088L15.6627 28.7149L13.0522 44.3775L10.4418 28.7149L7.83133 31.3253L5.22088 28.7149L0 26.1044L5.22088 23.494L7.83133 20.8835L10.4418 23.494L13.0522 7.83133L15.6627 23.494L18.2731 0L20.8835 23.494L23.494 13.0522L26.1044 23.494L28.7149 18.2731L31.3253 23.494L33.9357 2.61044L36.5462 23.494L39.1566 15.6627L41.7671 23.494L44.3775 20.8835L46.988 23.494L52.2088 26.1044Z" fill="black"/>
</g>
<defs>
<clipPath id="clip0_1_3031">
<rect width="52" height="52" fill="white"/>
</clipPath>
</defs>
</svg>
