<svg width="1749" height="89" viewBox="0 0 1749 89" fill="none" xmlns="http://www.w3.org/2000/svg">
<g clip-path="url(#clip0_804_32)">
<path d="M696 59H793.483C801.613 59 808.625 62.9964 810.272 68.5687L814.131 81.6208C815.229 85.3357 819.904 88 825.324 88H988.162C993.582 88 998.257 85.3357 999.355 81.6208L1003.21 68.5687C1004.86 62.9964 1011.87 59 1020 59H1748.29" stroke="#453953"/>
</g>
<g clip-path="url(#clip1_804_32)">
<path d="M-356 59H-258.517C-250.387 59 -243.375 62.9964 -241.728 68.5687L-237.869 81.6208C-236.771 85.3357 -232.096 88 -226.676 88H-63.8375C-58.4182 88 -53.7433 85.3357 -52.6445 81.6208L-48.7869 68.5687C-47.1395 62.9964 -40.1271 59 -31.9975 59H696.286" stroke="#453953"/>
</g>
<defs>
<clipPath id="clip0_804_32">
<rect width="1053" height="31" fill="white" transform="translate(696 58)"/>
</clipPath>
<clipPath id="clip1_804_32">
<rect width="1053" height="31" fill="white" transform="translate(-356 58)"/>
</clipPath>
</defs>
</svg>
