<svg width="308" height="311" viewBox="0 0 308 311" fill="none" xmlns="http://www.w3.org/2000/svg">
<path d="M215.833 301.562C215.833 306.498 211.831 310.5 206.895 310.5H10.1441C5.20786 310.5 1.20624 306.498 1.20624 301.562V104.811C1.20624 99.8749 5.20786 95.8733 10.1441 95.8733H184.394C189.047 95.8733 193.508 94.0253 196.798 90.7358L211.695 75.838C214.985 72.5485 216.833 68.087 216.833 63.4349V9.43784C216.833 4.50162 220.835 0.5 225.771 0.5H298.122C303.058 0.5 307.06 4.50162 307.06 9.43787V85.9355C307.06 90.8717 303.058 94.8733 298.122 94.8733H243.044C239.061 94.8733 235.196 96.2289 232.086 98.717L222.416 106.453C218.255 109.782 215.833 114.822 215.833 120.15V301.562Z" stroke="#5D5169"/>
</svg>
